<?xml version="1.0" standalone="no"?>
<!DOCTYPE svg PUBLIC "-//W3C//DTD SVG 20010904//EN"
 "http://www.w3.org/TR/2001/REC-SVG-20010904/DTD/svg10.dtd">
<svg version="1.0" xmlns="http://www.w3.org/2000/svg"
 width="50.000000pt" height="50.000000pt" viewBox="0 0 50.000000 50.000000"
 preserveAspectRatio="xMidYMid meet">

<g transform="translate(0.000000,50.000000) scale(0.100000,-0.100000)"
fill="#000000" stroke="none">
<path d="M249 474 c-23 -25 -24 -30 -26 -211 -1 -102 -4 -192 -7 -200 -3 -7
-15 -13 -26 -13 -15 0 -20 -7 -20 -25 0 -21 5 -25 28 -25 18 0 38 10 53 26 23
25 24 30 25 202 0 221 -1 211 29 222 15 6 25 17 25 30 0 30 -50 27 -81 -6z"/>
</g>
</svg>
